<svg width="40" height="44" viewBox="0 0 40 44" fill="none" xmlns="http://www.w3.org/2000/svg">
<g filter="url(#filter0_d)">
<path d="M15.2481 21.1679L24.4453 15.0365C25.1099 14.5934 26 15.0698 26 15.8685L26 22L26 28.1315C26 28.9302 25.1099 29.4066 24.4453 28.9635L15.2481 22.832C14.6543 22.4362 14.6543 21.5638 15.2481 21.1679Z" fill="url(#paint0_linear)"/>
<path d="M23.8906 14.2044L14.6934 20.3359C13.5059 21.1275 13.5059 22.8725 14.6934 23.6641L23.8906 29.7956C25.2197 30.6817 27 29.7289 27 28.1315L27 22L27 15.8685C27 14.2711 25.2197 13.3183 23.8906 14.2044Z" stroke="#0339C9" stroke-width="2"/>
</g>
<defs>
<filter id="filter0_d" x="0.802795" y="0.863464" width="39.1972" height="42.2731" filterUnits="userSpaceOnUse" color-interpolation-filters="sRGB">
<feFlood flood-opacity="0" result="BackgroundImageFix"/>
<feColorMatrix in="SourceAlpha" type="matrix" values="0 0 0 0 0 0 0 0 0 0 0 0 0 0 0 0 0 0 127 0" result="hardAlpha"/>
<feOffset/>
<feGaussianBlur stdDeviation="6"/>
<feColorMatrix type="matrix" values="0 0 0 0 0.0117647 0 0 0 0 0.223529 0 0 0 0 0.788235 0 0 0 1 0"/>
<feBlend mode="normal" in2="BackgroundImageFix" result="effect1_dropShadow"/>
<feBlend mode="normal" in="SourceGraphic" in2="effect1_dropShadow" result="shape"/>
</filter>
<linearGradient id="paint0_linear" x1="31.28" y1="14" x2="20" y2="14" gradientUnits="userSpaceOnUse">
<stop stop-color="#0061F3"/>
<stop offset="1" stop-color="#00AAF0"/>
</linearGradient>
</defs>
</svg>
